HIERARCHY
ROOT Hips
{
	OFFSET 0.000000 0.000000 0.000000
	CHANNELS 6 Xposition Yposition Zposition Zrotation Yrotation Xrotation 
	JOINT LHipJoint
	{
		OFFSET 0.000000 0.000000 0.000000
		CHANNELS 3 Zrotation Yrotation Xrotation
		JOINT LeftUpLeg
		{
			OFFSET 1.363060 -1.794630 0.839290
			CHANNELS 3 Zrotation Yrotation Xrotation
			JOINT LeftLeg
			{
				OFFSET 2.448110 -6.726130 0.000000
				CHANNELS 3 Zrotation Yrotation Xrotation
				JOINT LeftFoot
				{
					OFFSET 2.562200 -7.039590 0.000000
					CHANNELS 3 Zrotation Yrotation Xrotation
					JOINT LeftToeBase
					{
						OFFSET 0.157640 -0.433110 2.322550
						CHANNELS 3 Zrotation Yrotation Xrotation
						End Site
						{
							OFFSET 0.000000 0.000000 0.000000
						}
					}
				}
			}
		}
	}
	JOINT RHipJoint
	{
		OFFSET 0.000000 0.000000 0.000000
		CHANNELS 3 Zrotation Yrotation Xrotation
		JOINT RightUpLeg
		{
			OFFSET -1.305520 -1.794630 0.839290
			CHANNELS 3 Zrotation Yrotation Xrotation
			JOINT RightLeg
			{
				OFFSET -2.542530 -6.985550 0.000000
				CHANNELS 3 Zrotation Yrotation Xrotation
				JOINT RightFoot
				{
					OFFSET -2.568260 -7.056230 0.000000
					CHANNELS 3 Zrotation Yrotation Xrotation
					JOINT RightToeBase
					{
						OFFSET -0.164730 -0.452590 2.363150
						CHANNELS 3 Zrotation Yrotation Xrotation
						End Site
						{
							OFFSET 0.000000 0.000000 0.000000
						}
					}
				}
			}
		}
	}
	JOINT LowerBack
	{
		OFFSET 0.000000 0.000000 0.000000
		CHANNELS 3 Zrotation Yrotation Xrotation
		JOINT Spine
		{
			OFFSET 0.028270 2.035590 -0.193380
			CHANNELS 3 Zrotation Yrotation Xrotation
			JOINT Spine1
			{
				OFFSET 0.056720 2.048850 -0.042750
				CHANNELS 3 Zrotation Yrotation Xrotation
				JOINT Neck
				{
					OFFSET 0.000000 0.000000 0.000000
					CHANNELS 3 Zrotation Yrotation Xrotation
					JOINT Neck1
					{
						OFFSET -0.054170 1.746240 0.172020
						CHANNELS 3 Zrotation Yrotation Xrotation
						JOINT Head
						{
							OFFSET 0.104070 1.761360 -0.123970
							CHANNELS 3 Zrotation Yrotation Xrotation
							End Site
							{
								OFFSET 0.000000 0.000000 0.000000
							}
						}
					}
				}
				JOINT LeftShoulder
				{
					OFFSET 0.000000 0.000000 0.000000
					CHANNELS 3 Zrotation Yrotation Xrotation
					JOINT LeftArm
					{
						OFFSET 3.362410 1.200890 -0.311210
						CHANNELS 3 Zrotation Yrotation Xrotation
						JOINT LeftForeArm
						{
							OFFSET 4.983000 -0.000000 -0.000000
							CHANNELS 3 Zrotation Yrotation Xrotation
							JOINT LeftHand
							{
								OFFSET 3.483560 -0.000000 -0.000000
								CHANNELS 3 Zrotation Yrotation Xrotation
								JOINT LeftFingerBase
								{
									OFFSET 0.000000 0.000000 0.000000
									CHANNELS 3 Zrotation Yrotation Xrotation
									JOINT LeftHandIndex1
									{
										OFFSET 0.715260 -0.000000 -0.000000
										CHANNELS 3 Zrotation Yrotation Xrotation
										End Site
										{
											OFFSET 0.000000 0.000000 0.000000
										}
									}
								}
								JOINT LThumb
								{
									OFFSET 0.000000 0.000000 0.000000
									CHANNELS 3 Zrotation Yrotation Xrotation
									End Site
									{
										OFFSET 0.000000 0.000000 0.000000
									}
								}
							}
						}
					}
				}
				JOINT RightShoulder
				{
					OFFSET 0.000000 0.000000 0.000000
					CHANNELS 3 Zrotation Yrotation Xrotation
					JOINT RightArm
					{
						OFFSET -3.136600 1.374050 -0.404650
						CHANNELS 3 Zrotation Yrotation Xrotation
						JOINT RightForeArm
						{
							OFFSET -5.241900 -0.000000 -0.000000
							CHANNELS 3 Zrotation Yrotation Xrotation
							JOINT RightHand
							{
								OFFSET -3.444170 -0.000000 -0.000000
								CHANNELS 3 Zrotation Yrotation Xrotation
								JOINT RightFingerBase
								{
									OFFSET 0.000000 0.000000 0.000000
									CHANNELS 3 Zrotation Yrotation Xrotation
									JOINT RightHandIndex1
									{
										OFFSET -0.622530 -0.000000 -0.000000
										CHANNELS 3 Zrotation Yrotation Xrotation
										End Site
										{
											OFFSET 0.000000 0.000000 0.000000
										}
									}
								}
								JOINT RThumb
								{
									OFFSET 0.000000 0.000000 0.000000
									CHANNELS 3 Zrotation Yrotation Xrotation
									End Site
									{
										OFFSET 0.000000 0.000000 0.000000
									}
								}
							}
						}
					}
				}
			}
		}
	}
}
MOTION
Frames: 4
Frame Time: 0.008333
10.893202 17.691573 -27.007335 -5.899833 -6.989721 1.794849 0.877204 0.913187 0.264779 -9.071380 -9.454044 -31.385505 2.619818 12.079246 33.782235 -2.149462 10.936224 6.311890 0.128400 -2.309700 -6.362300 -2.369688 -2.634001 1.272359 35.428008 2.170534 8.068017 -0.095434 -3.767440 14.377802 -0.614109 1.694975 -2.698529 -0.200200 -2.881500 7.949000 5.008882 1.728935 5.505087 1.964454 2.249865 -1.832905 3.213756 1.665085 -3.716249 -6.716638 -3.985485 -8.843214 4.789516 -4.887507 14.680901 2.928300 -2.633200 9.511600 -7.302667 3.142431 -2.430841 -82.653891 6.697990 22.281789 10.477763 -20.313594 -2.392379 -0.885953 -3.386895 9.540074 12.586195 22.594591 5.778400 -7.125000 0.000000 0.000000 -18.263800 55.750600 -4.936200 5.883968 10.208358 0.820205 29.059667 9.675875 -32.461064 -130.480193 48.269304 -100.581671 -0.998826 4.203673 44.008226 -84.444461 32.444619 -72.174500 7.125000 0.000000 0.000000 -28.150600 39.220700 -41.813600 
10.872314 17.684405 -26.758114 -5.904358 -7.600882 2.240828 0.761886 0.846498 0.185134 -8.620111 -9.817505 -31.567383 1.956084 11.197228 30.708915 -2.410262 12.046189 7.027091 0.136300 -2.379700 -6.556300 -2.322735 -2.640586 1.311986 35.130006 2.064636 9.042848 0.013044 -3.392729 13.385794 -0.721801 2.308178 -2.246882 -0.169600 -2.653100 7.314300 5.020795 2.006102 5.220089 1.933004 2.582735 -1.887883 3.105539 1.851087 -3.775933 -6.606473 -3.929659 -8.500349 4.852407 -4.826834 14.004576 2.948700 -2.586200 9.114800 -7.308984 3.157187 -2.417794 -82.812412 7.053753 21.301664 10.252009 -19.942464 -2.280263 -0.941275 -3.355612 10.208981 12.713640 22.364240 5.794100 -7.125000 0.000000 0.000000 -17.972600 55.542800 -4.761900 5.887871 10.218628 0.825012 29.274926 9.895998 -33.259979 -130.944127 47.985782 -100.892467 -1.045623 4.229075 42.757914 -84.016793 33.021019 -71.671443 7.125000 0.000000 0.000000 -27.560561 39.101895 -40.847485 
10.855010 17.665360 -26.508587 -5.777285 -8.037941 2.731325 0.668256 0.774633 0.104861 -8.127453 -10.742826 -31.784419 1.403634 10.399265 28.035894 -2.631162 12.848467 6.991697 0.077800 -1.799500 -4.951800 -2.278924 -2.649080 1.355074 34.698891 1.951697 9.935172 0.108856 -3.041726 12.461096 -0.828094 2.890101 -1.967106 -0.139000 -2.402600 6.619700 4.921883 2.170873 4.830229 1.897597 2.748765 -1.957852 3.030755 1.957015 -3.807913 -6.498596 -3.951862 -8.166111 4.707300 -4.867084 13.616778 2.864800 -2.610000 8.845400 -7.328102 3.166357 -2.400384 -82.992199 7.326696 20.143162 9.952184 -19.433580 -2.125137 -1.049623 -3.323564 10.615863 13.350837 22.078257 6.060000 -7.125000 0.000000 0.000000 -17.075400 55.400700 -4.454100 5.888753 10.232748 0.825543 29.616713 10.232415 -34.274001 -131.418316 47.672619 -101.227221 -1.199819 4.213995 39.993340 -82.059105 32.872617 -68.027352 7.125000 0.000000 0.000000 -26.202817 36.407173 -38.620496 
10.837296 17.635462 -26.255169 -5.826978 -8.401383 2.918336 0.568353 0.730492 0.043341 -7.412659 -11.828059 -31.564456 0.911915 9.587840 25.472730 -2.865195 13.553782 6.511027 0.018000 -0.865400 -2.378600 -2.247842 -2.664123 1.387481 34.524929 1.746258 11.251627 0.212488 -2.627706 11.373947 -0.853900 3.114948 -1.596620 -0.080400 -1.829400 5.034500 5.044076 2.314985 4.752769 1.877947 2.929801 -1.973844 2.886060 2.056386 -3.781042 -6.484174 -3.995851 -8.370585 4.631195 -4.920282 13.782689 2.819100 -2.640300 8.968700 -7.348156 3.162306 -2.392561 -83.226885 7.513790 18.755839 9.708288 -18.992296 -1.995870 -1.124223 -3.300012 11.339032 13.603111 21.969458 6.164500 -7.125000 0.000000 0.000000 -16.724700 55.348300 -4.337200 5.881363 10.261798 0.821223 29.975610 10.740306 -35.385046 -131.830307 47.374155 -101.520111 -1.435883 4.133502 36.352967 -79.036846 31.609071 -61.852658 7.125000 0.000000 0.000000 -24.690818 31.365571 -35.904150 
